<?xml version="1.0" standalone="no"?>
<!DOCTYPE svg PUBLIC "-//W3C//DTD SVG 20010904//EN"
 "http://www.w3.org/TR/2001/REC-SVG-20010904/DTD/svg10.dtd">
<svg version="1.0" xmlns="http://www.w3.org/2000/svg"
 width="217.000000pt" height="217.000000pt" viewBox="0 0 217.000000 217.000000"
 preserveAspectRatio="xMidYMid meet">
<metadata>
Created by potrace 1.11, written by Peter Selinger 2001-2013
</metadata>
<g transform="translate(0.000000,217.000000) scale(0.100000,-0.100000)"
fill="#000000" stroke="none">
<path d="M790 1489 c-157 -215 -290 -402 -297 -414 -11 -20 9 -51 250 -383
l262 -360 3 103 3 104 -187 256 c-119 163 -185 262 -182 273 6 21 416 586 429
590 5 2 9 -58 9 -143 l0 -148 -106 -145 c-58 -80 -108 -151 -111 -158 -2 -6
45 -80 106 -162 l111 -151 2 -257 c2 -181 6 -258 14 -261 18 -6 599 797 599
827 -1 17 -85 140 -249 365 -137 187 -252 344 -257 350 -5 5 -9 -34 -9 -95 l0
-105 186 -254 c102 -140 183 -260 180 -267 -3 -8 -101 -145 -218 -306 l-213
-292 -3 148 -3 148 107 146 c58 80 108 150 110 156 2 6 -45 76 -104 156 l-107
145 -5 260 c-4 220 -7 260 -20 263 -10 1 -116 -136 -300 -389z m430 -324 c101
-104 101 -107 -13 -222 -111 -113 -120 -113 -233 1 -110 109 -110 120 -16 218
86 91 115 109 152 97 15 -6 65 -48 110 -94z"/>
</g>
</svg>
